<svg width="1708" height="556" viewBox="0 0 1708 556" fill="none" xmlns="http://www.w3.org/2000/svg">
<path d="M64.394 528.762C56.5636 530.861 49.402 531.499 42.9093 530.676C36.3945 529.772 30.7848 527.299 26.0802 523.259C21.458 519.197 17.9661 513.419 15.6045 505.924C14.6165 502.567 13.6035 498.951 12.5655 495.077C11.5275 491.203 10.5748 487.483 9.70754 483.916C8.04951 476.41 8.24765 469.731 10.3019 463.88C12.4166 457.924 16.0687 452.926 21.2584 448.885C26.5305 444.822 32.9581 441.775 40.5412 439.743C45.9813 438.285 51.2272 437.586 56.2788 437.646C61.3908 437.601 66.1547 438.401 70.5707 440.045C74.9645 441.606 78.7519 444.037 81.933 447.336C85.0921 450.554 87.3974 454.707 88.8492 459.795C89.048 460.537 88.9251 461.232 88.4807 461.881C88.1186 462.508 87.5667 462.921 86.8248 463.12L65.9299 468.719C64.6936 469.05 63.7206 469.046 63.0111 468.706C62.3016 468.366 61.5752 467.633 60.8318 466.507C58.8105 463.25 56.6039 461.279 54.212 460.595C51.8201 459.911 49.1405 459.966 46.1731 460.761C42.5464 461.733 39.9265 463.495 38.3135 466.048C36.6784 468.518 36.43 472.206 37.5682 477.114C39.132 483.939 40.9872 490.862 43.1339 497.885C44.6018 502.704 46.6723 505.815 49.3454 507.219C51.9965 508.541 55.1354 508.716 58.7621 507.744C61.7294 506.949 64.0667 505.616 65.774 503.745C67.5637 501.852 68.5003 499.083 68.5839 495.439C68.5602 494.031 68.7817 493.044 69.2482 492.478C69.7751 491.806 70.6567 491.305 71.8931 490.974L92.788 485.375C93.5299 485.176 94.2143 485.258 94.8414 485.62C95.5509 485.96 96.005 486.501 96.2038 487.243C97.4907 492.375 97.5816 497.166 96.4766 501.614C95.3495 505.98 93.2847 509.978 90.2823 513.61C87.2578 517.159 83.5319 520.233 79.1046 522.833C74.7376 525.328 69.8341 527.305 64.394 528.762ZM118.683 512.891C117.859 513.111 117.04 513.022 116.226 512.621C115.412 512.221 114.872 511.526 114.607 510.537L93.1395 430.42C92.8965 429.513 93.0275 428.683 93.5323 427.929C94.015 427.093 94.6685 426.564 95.4927 426.344L167.45 407.063C168.357 406.82 169.187 406.951 169.941 407.455C170.755 407.856 171.283 408.509 171.526 409.416L192.994 489.534C193.237 490.44 193.117 491.312 192.634 492.148C192.212 492.879 191.547 493.367 190.641 493.61L170.487 499.01C169.581 499.253 168.72 499.174 167.906 498.774C167.153 498.269 166.654 497.563 166.412 496.656L150.377 436.815L125.155 443.574L141.189 503.415C141.432 504.321 141.312 505.193 140.83 506.029C140.407 506.76 139.743 507.248 138.836 507.491L118.683 512.891ZM204.833 489.807C204.091 490.006 203.365 489.935 202.656 489.595C202.007 489.151 201.583 488.557 201.384 487.816C201.296 487.486 201.301 487.175 201.399 486.884L208.386 400.202C208.391 399.229 208.695 398.22 209.298 397.175C209.984 396.108 211.069 395.375 212.552 394.978L235.178 388.915C236.744 388.495 238.05 388.587 239.095 389.191C240.14 389.794 240.908 390.516 241.398 391.356L290.914 462.899C291.062 463.124 291.181 463.401 291.269 463.731C291.468 464.473 291.356 465.209 290.934 465.941C290.572 466.568 290.02 466.981 289.278 467.18L270.238 472.282C268.836 472.657 267.718 472.603 266.882 472.121C266.046 471.638 265.427 471.141 265.025 470.631L258.409 461.272L228.612 469.256L227.562 480.669C227.47 481.312 227.182 482.052 226.699 482.888C226.299 483.702 225.357 484.307 223.873 484.705L204.833 489.807ZM228.701 446.837L247.123 441.901L230.396 416.567L228.701 446.837ZM337.872 455.484C330.041 457.582 322.88 458.22 316.387 457.398C309.872 456.493 304.263 454.021 299.558 449.981C294.936 445.919 291.444 440.141 289.082 432.646C288.094 429.288 287.081 425.673 286.043 421.799C285.005 417.925 284.053 414.204 283.185 410.638C281.527 403.131 281.725 396.453 283.78 390.601C285.894 384.646 289.546 379.648 294.736 375.607C300.008 371.544 306.436 368.496 314.019 366.465C319.459 365.007 324.705 364.308 329.757 364.368C334.869 364.323 339.633 365.123 344.048 366.767C348.442 368.328 352.23 370.759 355.411 374.058C358.57 377.276 360.875 381.428 362.327 386.517C362.526 387.259 362.403 387.954 361.958 388.603C361.596 389.23 361.044 389.643 360.303 389.842L339.408 395.441C338.171 395.772 337.198 395.768 336.489 395.428C335.779 395.088 335.053 394.355 334.31 393.229C332.288 389.972 330.082 388.001 327.69 387.317C325.298 386.633 322.618 386.688 319.651 387.483C316.024 388.455 313.404 390.217 311.791 392.769C310.156 395.239 309.908 398.928 311.046 403.835C312.61 410.661 314.465 417.584 316.612 424.607C318.08 429.426 320.15 432.537 322.823 433.941C325.474 435.263 328.613 435.438 332.24 434.466C335.207 433.671 337.544 432.338 339.252 430.467C341.041 428.574 341.978 425.805 342.062 422.16C342.038 420.753 342.259 419.766 342.726 419.2C343.253 418.528 344.135 418.027 345.371 417.696L366.266 412.097C367.008 411.898 367.692 411.98 368.319 412.342C369.029 412.682 369.483 413.223 369.682 413.965C370.968 419.097 371.059 423.887 369.954 428.336C368.827 432.701 366.762 436.7 363.76 440.332C360.736 443.881 357.01 446.955 352.582 449.555C348.215 452.05 343.312 454.027 337.872 455.484ZM392.161 439.612C391.336 439.833 390.517 439.744 389.703 439.343C388.867 438.861 388.328 438.166 388.085 437.259L366.617 357.141C366.374 356.235 366.505 355.405 367.01 354.651C367.493 353.815 368.187 353.275 369.094 353.032L389.124 347.665C390.03 347.423 390.86 347.553 391.614 348.058C392.428 348.459 392.957 349.112 393.2 350.019L404.894 393.663L423.573 341.218C423.868 340.343 424.321 339.56 424.93 338.866C425.54 338.173 426.38 337.683 427.452 337.396L445.379 332.592C446.286 332.349 447.116 332.48 447.87 332.985C448.684 333.385 449.212 334.038 449.455 334.945L470.923 415.063C471.165 415.97 471.046 416.841 470.563 417.677C470.14 418.409 469.476 418.896 468.569 419.139L448.416 424.539C447.51 424.782 446.649 424.703 445.835 424.303C445.082 423.798 444.583 423.092 444.34 422.186L433.275 380.89L413.967 430.987C413.732 431.756 413.362 432.518 412.857 433.272C412.33 433.943 411.407 434.455 410.088 434.809L392.161 439.612ZM490.323 413.31C489.499 413.531 488.68 413.441 487.865 413.041C487.029 412.558 486.49 411.863 486.247 410.957L464.779 330.839C464.537 329.932 464.667 329.102 465.172 328.348C465.655 327.512 466.308 326.984 467.133 326.763L528.828 310.232C529.735 309.989 530.606 310.109 531.442 310.591C532.256 310.992 532.785 311.645 533.028 312.552L537.202 328.13C537.445 329.037 537.325 329.908 536.842 330.744C536.338 331.498 535.632 331.996 534.725 332.239L496.397 342.509L499.147 352.771L513.365 348.961C523.751 346.179 532.593 346.371 539.891 349.54C547.189 352.708 551.953 358.455 554.184 366.78C555.266 370.819 555.518 374.727 554.94 378.504C554.362 382.281 552.962 385.792 550.739 389.038C548.578 392.179 545.571 394.972 541.721 397.418C537.953 399.841 533.349 401.781 527.909 403.239L490.323 413.31ZM508.688 388.379L520.681 385.166C522.494 384.68 523.909 383.859 524.924 382.704C525.918 381.466 526.526 380.11 526.75 378.636C527.056 377.141 527.01 375.651 526.613 374.168C525.994 371.86 524.711 370.039 522.764 368.706C520.899 367.35 518.648 367.026 516.01 367.733L504.017 370.946L508.688 388.379ZM607.003 383.371C599.09 385.491 591.876 386.099 585.361 385.194C578.929 384.267 573.36 381.784 568.656 377.744C564.012 373.599 560.572 367.851 558.337 360.499C557.327 357.059 556.336 353.526 555.364 349.899C554.37 346.19 553.429 342.511 552.539 338.862C550.821 331.46 550.937 324.803 552.887 318.892C554.919 312.959 558.519 307.93 563.686 303.807C568.832 299.601 575.32 296.449 583.15 294.351C590.898 292.275 598.052 291.772 604.611 292.841C611.147 293.828 616.779 296.383 621.506 300.506C626.233 304.628 629.661 310.335 631.792 317.627C632.928 321.209 633.994 324.855 634.987 328.564C635.959 332.191 636.827 335.758 637.589 339.264C639.33 346.748 639.184 353.457 637.152 359.391C635.18 365.22 631.599 370.155 626.409 374.195C621.302 378.214 614.833 381.273 607.003 383.371ZM601.371 362.352C604.833 361.425 607.4 359.632 609.074 356.975C610.725 354.236 610.973 350.547 609.819 345.909C609.034 342.321 608.2 338.878 607.317 335.581C606.411 332.202 605.412 328.803 604.32 325.385C603.42 322.358 602.17 319.998 600.568 318.307C599.049 316.594 597.261 315.527 595.205 315.106C593.231 314.663 591.09 314.751 588.782 315.37C586.474 315.988 584.535 316.994 582.964 318.386C581.394 319.779 580.338 321.608 579.797 323.873C579.338 326.116 579.475 328.774 580.21 331.846C581.055 335.33 581.931 338.761 582.836 342.141C583.72 345.438 584.677 348.847 585.71 352.37C587.111 356.941 589.171 360.011 591.888 361.58C594.666 363.045 597.827 363.302 601.371 362.352ZM719.24 353.297C712.398 355.13 706.388 355.945 701.21 355.743C696.032 355.54 691.639 354.641 688.031 353.046C684.401 351.368 681.447 349.244 679.168 346.675C676.972 344.083 675.344 341.471 674.286 338.839C674.005 338.12 674.086 337.435 674.531 336.786C674.953 336.054 675.535 335.589 676.277 335.39L696.307 330.024C697.378 329.736 698.216 329.733 698.821 330.012C699.487 330.187 700.207 330.569 700.983 331.156C702.183 332.336 703.758 333.107 705.71 333.467C707.64 333.745 710.088 333.487 713.056 332.691C715.611 332.007 717.677 331.144 719.253 330.103C720.912 329.04 722.01 327.863 722.547 326.57C723.166 325.256 723.277 323.857 722.88 322.373C722.217 319.9 720.742 318.352 718.455 317.728C716.25 317.082 713.375 317.234 709.831 318.184L700.682 320.635C699.775 320.878 698.904 320.758 698.068 320.276C697.209 319.71 696.659 318.975 696.416 318.068L693.103 305.704C692.86 304.797 692.98 303.926 693.463 303.09C693.923 302.171 694.607 301.591 695.514 301.348L704.539 298.929C707.259 298.2 709.3 297.079 710.661 295.566C712.105 294.031 712.518 292.109 711.9 289.801C711.546 288.482 710.896 287.376 709.95 286.481C709.003 285.586 707.752 285.038 706.196 284.836C704.64 284.635 702.75 284.832 700.524 285.428C697.474 286.246 695.206 287.339 693.718 288.71C692.29 289.976 691.494 291.293 691.331 292.662C691.118 293.514 690.808 294.172 690.402 294.634C689.996 295.096 689.257 295.471 688.185 295.758L667.908 301.191C667.167 301.39 666.441 301.319 665.731 300.979C665.022 300.639 664.609 300.087 664.493 299.324C664.049 296.35 664.101 293.244 664.646 290.006C665.253 286.663 666.678 283.41 668.922 280.247C671.145 277.001 674.406 274.007 678.707 271.265C682.985 268.44 688.587 266.099 695.51 264.244C702.764 262.301 709.379 261.765 715.355 262.637C721.413 263.488 726.434 265.411 730.417 268.407C734.483 271.382 737.134 275.177 738.371 279.793C738.857 281.606 739.099 283.662 739.096 285.959C739.153 288.153 738.747 290.426 737.876 292.78C737.065 295.029 735.539 297.249 733.299 299.439C736.851 300.166 739.79 301.41 742.118 303.172C744.527 304.911 746.404 306.97 747.748 309.349C749.153 311.623 750.164 313.914 750.783 316.222C752.218 321.58 751.911 326.697 749.861 331.576C747.789 336.371 744.125 340.666 738.869 344.459C733.696 348.231 727.152 351.177 719.24 353.297ZM765.07 339.692C764.328 339.891 763.602 339.82 762.893 339.48C762.244 339.036 761.82 338.442 761.621 337.701C761.533 337.371 761.538 337.06 761.636 336.769L768.624 250.087C768.628 249.114 768.932 248.105 769.535 247.06C770.221 245.992 771.306 245.26 772.789 244.863L795.415 238.8C796.981 238.38 798.287 238.472 799.332 239.076C800.377 239.679 801.145 240.401 801.635 241.241L851.151 312.784C851.299 313.009 851.418 313.286 851.506 313.616C851.705 314.358 851.593 315.094 851.171 315.826C850.809 316.453 850.257 316.866 849.515 317.065L830.475 322.167C829.073 322.542 827.955 322.488 827.119 322.006C826.283 321.523 825.664 321.026 825.262 320.516L818.646 311.157L788.849 319.141L787.799 330.554C787.707 331.197 787.419 331.936 786.936 332.773C786.536 333.587 785.594 334.192 784.11 334.59L765.07 339.692ZM788.938 296.722L807.36 291.786L790.633 266.452L788.938 296.722ZM922.74 298.769C914.827 300.89 907.613 301.497 901.098 300.593C894.666 299.666 889.098 297.183 884.393 293.143C879.749 288.998 876.309 283.25 874.074 275.898C873.064 272.458 872.073 268.925 871.101 265.298C870.107 261.589 869.166 257.91 868.276 254.261C866.558 246.859 866.674 240.202 868.624 234.291C870.656 228.357 874.256 223.329 879.423 219.205C884.569 215 891.057 211.848 898.887 209.75C906.635 207.674 913.789 207.17 920.348 208.24C926.884 209.227 932.516 211.782 937.243 215.904C941.97 220.027 945.398 225.734 947.529 233.025C948.665 236.608 949.731 240.254 950.724 243.963C951.696 247.59 952.564 251.156 953.326 254.662C955.067 262.147 954.921 268.856 952.889 274.789C950.917 280.618 947.336 285.553 942.146 289.594C937.039 293.613 930.57 296.671 922.74 298.769ZM917.108 277.751C920.57 276.823 923.137 275.031 924.811 272.374C926.462 269.635 926.711 265.946 925.556 261.308C924.771 257.72 923.937 254.277 923.054 250.98C922.148 247.6 921.149 244.202 920.057 240.784C919.157 237.756 917.907 235.397 916.305 233.706C914.786 231.993 912.998 230.926 910.942 230.505C908.968 230.062 906.827 230.15 904.519 230.768C902.211 231.387 900.272 232.392 898.702 233.785C897.131 235.177 896.075 237.006 895.534 239.271C895.075 241.515 895.212 244.172 895.947 247.244C896.792 250.728 897.668 254.16 898.573 257.539C899.457 260.836 900.414 264.246 901.447 267.768C902.848 272.34 904.908 275.41 907.625 276.979C910.403 278.443 913.564 278.7 917.108 277.751ZM978.115 282.606C977.291 282.827 976.472 282.737 975.658 282.337C974.822 281.854 974.282 281.16 974.04 280.253L952.572 200.135C952.329 199.229 952.46 198.398 952.965 197.645C953.448 196.809 954.101 196.28 954.925 196.059L1016.62 179.528C1017.53 179.285 1018.4 179.405 1019.24 179.888C1020.05 180.288 1020.58 180.942 1020.82 181.848L1024.99 197.427C1025.24 198.333 1025.12 199.205 1024.64 200.041C1024.13 200.795 1023.42 201.293 1022.52 201.536L984.19 211.806L986.94 222.068L1001.16 218.258C1011.54 215.475 1020.39 215.668 1027.68 218.836C1034.98 222.005 1039.75 227.751 1041.98 236.076C1043.06 240.115 1043.31 244.023 1042.73 247.8C1042.15 251.577 1040.75 255.089 1038.53 258.334C1036.37 261.476 1033.36 264.269 1029.51 266.714C1025.75 269.137 1021.14 271.078 1015.7 272.535L978.115 282.606ZM996.481 257.676L1008.47 254.462C1010.29 253.976 1011.7 253.155 1012.72 252C1013.71 250.762 1014.32 249.406 1014.54 247.933C1014.85 246.437 1014.8 244.948 1014.41 243.464C1013.79 241.156 1012.5 239.336 1010.56 238.002C1008.69 236.647 1006.44 236.322 1003.8 237.029L991.81 240.243L996.481 257.676ZM1060.34 260.574C1059.52 260.795 1058.7 260.706 1057.88 260.305C1057.05 259.823 1056.51 259.128 1056.26 258.221L1034.8 178.103C1034.55 177.197 1034.68 176.367 1035.19 175.613C1035.67 174.777 1036.33 174.248 1037.15 174.027L1073.25 164.354C1080.42 162.432 1086.93 161.836 1092.78 162.566C1098.71 163.273 1103.75 165.414 1107.89 168.987C1112.03 172.561 1114.98 177.645 1116.74 184.239C1118.51 190.833 1118.49 196.67 1116.67 201.752C1114.83 206.75 1111.49 210.957 1106.66 214.37C1101.92 217.762 1095.96 220.419 1088.79 222.34L1077.04 225.488L1083.84 250.833C1084.08 251.74 1083.96 252.611 1083.48 253.448C1083.05 254.179 1082.39 254.666 1081.48 254.909L1060.34 260.574ZM1071.22 205.714L1082.84 202.6C1085.23 201.96 1087.06 200.718 1088.33 198.875C1089.67 196.927 1089.92 194.429 1089.11 191.379C1088.49 189.071 1087.27 187.146 1085.44 185.604C1083.61 184.061 1081.13 183.71 1078 184.549L1066.38 187.663L1071.22 205.714ZM1138.16 239.723C1137.42 239.922 1136.69 239.851 1135.98 239.511C1135.33 239.067 1134.91 238.474 1134.71 237.732C1134.62 237.402 1134.63 237.091 1134.73 236.8L1141.71 150.118C1141.72 149.145 1142.02 148.136 1142.62 147.091C1143.31 146.024 1144.39 145.291 1145.88 144.894L1168.5 138.831C1170.07 138.411 1171.38 138.503 1172.42 139.107C1173.47 139.71 1174.23 140.432 1174.72 141.273L1224.24 212.815C1224.39 213.04 1224.51 213.317 1224.6 213.647C1224.79 214.389 1224.68 215.126 1224.26 215.857C1223.9 216.484 1223.35 216.897 1222.6 217.096L1203.56 222.198C1202.16 222.573 1201.04 222.52 1200.21 222.037C1199.37 221.554 1198.75 221.057 1198.35 220.547L1191.73 211.188L1161.94 219.172L1160.89 230.585C1160.8 231.228 1160.51 231.968 1160.03 232.804C1159.62 233.618 1158.68 234.223 1157.2 234.621L1138.16 239.723ZM1162.03 196.753L1180.45 191.817L1163.72 166.483L1162.03 196.753ZM1332.01 206.334C1331.1 206.576 1330.23 206.457 1329.39 205.974C1328.66 205.551 1328.17 204.887 1327.93 203.98L1324.15 189.885L1236.74 213.308C1235.92 213.528 1235.1 213.439 1234.28 213.038C1233.45 212.556 1232.91 211.861 1232.67 210.954L1211.2 130.837C1210.93 129.847 1211.05 128.976 1211.56 128.222C1212.06 127.469 1212.73 126.981 1213.55 126.761L1233.71 121.361C1234.61 121.118 1235.44 121.249 1236.2 121.753C1237.01 122.154 1237.54 122.807 1237.78 123.714L1253.82 183.555L1268.16 179.712L1252.12 119.871C1251.88 118.964 1251.97 118.145 1252.39 117.414C1252.87 116.577 1253.57 116.038 1254.48 115.795L1274.63 110.395C1275.54 110.152 1276.37 110.283 1277.12 110.788C1277.93 111.188 1278.46 111.842 1278.71 112.748L1294.74 172.589L1308.96 168.779L1292.92 108.938C1292.68 108.032 1292.77 107.213 1293.19 106.481C1293.68 105.645 1294.37 105.105 1295.28 104.862L1315.43 99.4624C1316.34 99.2195 1317.17 99.3504 1317.92 99.8552C1318.73 100.256 1319.26 100.909 1319.51 101.816L1335.54 161.657L1341.23 160.133C1342.13 159.89 1342.96 160.021 1343.72 160.526C1344.53 160.926 1345.06 161.579 1345.3 162.486L1354.51 196.858C1354.76 197.764 1354.63 198.594 1354.12 199.348C1353.72 200.162 1353.07 200.691 1352.16 200.934L1332.01 206.334ZM1365.45 178.82C1364.63 179.041 1363.81 178.951 1362.99 178.551C1362.16 178.068 1361.62 177.373 1361.38 176.467L1339.91 96.3489C1339.67 95.4422 1339.8 94.612 1340.3 93.8584C1340.78 93.0223 1341.44 92.4938 1342.26 92.273L1402.84 76.0398C1403.75 75.7969 1404.62 75.9168 1405.46 76.3995C1406.27 76.7998 1406.8 77.4533 1407.04 78.3599L1410.95 92.9493C1411.17 93.7735 1411.04 94.6037 1410.56 95.4398C1410.08 96.2759 1409.38 96.8154 1408.48 97.0584L1370.27 107.295L1373.55 119.535L1409.04 110.027C1409.94 109.784 1410.81 109.904 1411.65 110.387C1412.46 110.787 1412.99 111.441 1413.24 112.348L1416.81 125.7C1417.06 126.607 1416.94 127.479 1416.45 128.315C1415.95 129.068 1415.24 129.567 1414.34 129.81L1378.85 139.318L1382.2 151.805L1421.39 141.303C1422.3 141.06 1423.17 141.18 1424.01 141.663C1424.84 142.146 1425.38 142.84 1425.62 143.747L1429.5 158.213C1429.74 159.119 1429.62 159.991 1429.14 160.827C1428.64 161.581 1427.93 162.079 1427.02 162.322L1365.45 178.82ZM1446.23 157.176C1445.4 157.397 1444.58 157.307 1443.77 156.907C1442.96 156.507 1442.42 155.812 1442.15 154.823L1420.68 74.7052C1420.44 73.7985 1420.57 72.9683 1421.08 72.2146C1421.56 71.3785 1422.21 70.8501 1423.04 70.6292L1443.19 65.2292C1444.1 64.9863 1444.93 65.1172 1445.68 65.622C1446.49 66.0223 1447.02 66.6758 1447.27 67.5825L1454.75 95.5248L1479.98 88.7665L1472.49 60.8242C1472.25 59.9175 1472.34 59.0984 1472.76 58.3668C1473.24 57.5307 1473.93 56.9912 1474.84 56.7482L1494.99 51.3482C1495.9 51.1053 1496.73 51.2362 1497.49 51.741C1498.3 52.1413 1498.83 52.7948 1499.07 53.7015L1520.54 133.819C1520.78 134.726 1520.66 135.597 1520.18 136.433C1519.76 137.165 1519.09 137.652 1518.18 137.895L1498.03 143.295C1497.13 143.538 1496.26 143.459 1495.45 143.059C1494.7 142.554 1494.2 141.849 1493.96 140.942L1486.27 112.258L1461.05 119.016L1468.73 147.7C1468.98 148.607 1468.86 149.478 1468.37 150.314C1467.95 151.046 1467.29 151.533 1466.38 151.776L1446.23 157.176ZM1540.04 132.038C1539.22 132.259 1538.4 132.17 1537.59 131.769C1536.75 131.287 1536.21 130.592 1535.97 129.685L1514.5 49.5674C1514.26 48.6607 1514.39 47.8305 1514.89 47.0768C1515.37 46.2407 1516.07 45.7012 1516.98 45.4583L1537.01 40.0914C1537.91 39.8485 1538.74 39.9794 1539.5 40.4842C1540.31 40.8845 1540.84 41.538 1541.08 42.4447L1552.78 86.0891L1571.45 33.6436C1571.75 32.7693 1572.2 31.9855 1572.81 31.2921C1573.42 30.5988 1574.26 30.1086 1575.33 29.8215L1593.26 25.0178C1594.17 24.7748 1595 24.9058 1595.75 25.4106C1596.57 25.8109 1597.09 26.4644 1597.34 27.371L1618.8 107.489C1619.05 108.395 1618.93 109.267 1618.45 110.103C1618.02 110.835 1617.36 111.322 1616.45 111.565L1596.3 116.965C1595.39 117.208 1594.53 117.129 1593.72 116.729C1592.96 116.224 1592.47 115.518 1592.22 114.611L1581.16 73.3162L1561.85 123.413C1561.61 124.182 1561.24 124.944 1560.74 125.698C1560.21 126.369 1559.29 126.881 1557.97 127.235L1540.04 132.038ZM1638.21 105.736C1637.38 105.957 1636.56 105.867 1635.75 105.467C1634.91 104.984 1634.37 104.289 1634.13 103.383L1612.66 23.2649C1612.42 22.3582 1612.55 21.528 1613.05 20.7744C1613.54 19.9383 1614.19 19.4098 1615.01 19.1889L1675.6 2.95579C1676.5 2.71285 1677.38 2.83273 1678.21 3.31546C1679.03 3.71574 1679.55 4.36923 1679.8 5.27592L1683.71 19.8653C1683.93 20.6895 1683.8 21.5197 1683.31 22.3558C1682.83 23.1919 1682.14 23.7314 1681.23 23.9743L1643.03 34.2112L1646.31 46.4514L1681.79 36.9434C1682.7 36.7004 1683.57 36.8203 1684.4 37.3031C1685.22 37.7033 1685.75 38.3568 1685.99 39.2635L1689.57 52.6165C1689.81 53.5232 1689.69 54.3945 1689.21 55.2306C1688.7 55.9843 1688 56.4826 1687.09 56.7255L1651.61 66.2335L1654.95 78.721L1694.15 68.2192C1695.05 67.9762 1695.92 68.0961 1696.76 68.5788C1697.6 69.0616 1698.13 69.7563 1698.38 70.6629L1702.25 85.1286C1702.5 86.0353 1702.38 86.9067 1701.89 87.7428C1701.39 88.4965 1700.68 88.9948 1699.78 89.2377L1638.21 105.736Z" fill="#4016A1"/>
</svg>
