<svg width="668" height="534" viewBox="0 0 668 534" fill="none" xmlns="http://www.w3.org/2000/svg">
<path d="M558.999 0.333984C618.83 0.333984 667.333 48.8365 667.333 108.667V425.487C667.333 485.318 618.83 533.82 558.999 533.82H108.999C49.1685 533.82 0.666016 485.318 0.666016 425.487V108.667C0.666016 50.8996 45.8812 3.69245 102.852 0.505471L108.999 0.333984H558.999ZM558.999 50.334H108.999L104.215 50.5274C74.2364 52.9609 50.666 78.0615 50.666 108.667V425.487C50.666 457.704 76.7827 483.82 108.999 483.82H558.999C591.216 483.82 617.333 457.704 617.333 425.487V108.667C617.333 76.4507 591.216 50.334 558.999 50.334ZM242.418 283.667C256.225 283.667 267.418 294.86 267.418 308.667V328.074C267.418 370.474 235.136 392.001 184.042 392.001C132.946 392.001 100.666 370.454 100.666 328.035V308.667C100.666 294.86 111.859 283.667 125.666 283.667H242.418ZM295.116 283.62L342.333 283.667C356.14 283.667 367.333 294.86 367.333 308.667V319.757C367.333 351.875 341.833 367.001 304.833 367.001C300.961 367.001 297.216 366.835 293.613 366.501C297.345 357.537 299.675 347.537 300.457 336.523L300.752 328.074V308.667C300.752 299.702 298.729 291.209 295.116 283.62ZM442.322 283.667H542.333C556.14 283.667 567.333 294.86 567.333 308.667C567.333 321.324 557.928 331.784 545.725 333.439L542.333 333.667H442.322C428.515 333.667 417.322 322.474 417.322 308.667C417.322 296.011 426.727 285.551 438.929 283.896L442.322 283.667ZM184.023 150.334C211.65 150.334 234.047 172.73 234.047 200.358C234.047 227.985 211.65 250.382 184.023 250.382C156.396 250.382 133.999 227.985 133.999 200.358C133.999 172.73 156.396 150.334 184.023 150.334ZM312.999 167.076C335.969 167.076 354.591 185.697 354.591 208.667C354.591 231.638 335.969 250.259 312.999 250.259C290.029 250.259 271.407 231.638 271.407 208.667C271.407 185.697 290.029 167.076 312.999 167.076ZM442.322 183.667H542.333C556.14 183.667 567.333 194.86 567.333 208.667C567.333 221.324 557.928 231.784 545.725 233.439L542.333 233.667H442.322C428.515 233.667 417.322 222.474 417.322 208.667C417.322 196.011 426.727 185.551 438.929 183.896L442.322 183.667Z" fill="#4016A1"/>
</svg>
