<svg width="752" height="592" viewBox="0 0 752 592" fill="none" xmlns="http://www.w3.org/2000/svg">
<path d="M239.645 39.0977H218.062V54.7227H239.645V39.0977Z" fill="#4016A1"/>
<path d="M71.5109 154.523H39.9453V170.148H71.5109V154.523Z" fill="#4016A1"/>
<path d="M26.6773 371.176H0.652344V386.801H26.6773V371.176Z" fill="#4016A1"/>
<path d="M71.5094 420.006H45.4844V435.631H71.5094V420.006Z" fill="#4016A1"/>
<path d="M649.238 120.337C617.707 88.0399 578.24 63.5383 534.021 49.993C608.38 12.493 667.723 5.96173 694.738 32.9617C713.16 51.3992 716.145 85.7274 703.348 130.18L691.318 103.68L677.084 110.134L700.177 161.024L751.349 137.821L744.896 123.587L717.988 135.79C733.099 84.3524 728.943 45.0711 705.785 21.9149C671.301 -12.5695 600.582 -4.41328 511.535 44.1648C496.223 40.882 480.426 38.8836 464.302 38.3055C462.91 38.1961 461.535 38.1024 460.146 38.1024C459.568 38.1024 458.99 38.1336 458.426 38.1649C457.084 38.1336 455.738 38.1024 454.379 38.1024C452.082 38.1024 449.801 38.1336 447.52 38.2117C444.332 38.2899 441.16 38.4305 438.004 38.618H259.535V54.243H362.004C322.941 68.368 288.004 91.1648 259.535 120.321C255.785 124.165 252.145 128.102 248.629 132.165C242.426 139.305 236.582 146.759 231.145 154.524H100.582V170.149H220.957C215.191 179.712 209.988 189.648 205.41 199.915H147.598V215.54H199.004C187.941 245.149 181.895 277.18 181.895 310.602C181.895 328.571 183.66 346.134 186.988 363.149C185.441 365.837 183.926 368.51 182.441 371.18H51.3945V386.805H174.051C168.207 398.134 163.004 409.229 158.473 420.009H95.0352V435.634H152.301C146.051 452.573 141.566 468.588 139.051 483.354C132.551 521.415 138.988 551.384 157.645 570.04C171.691 584.087 191.473 591.166 216.629 591.151C221.957 591.151 227.535 590.837 233.348 590.198C263.113 586.93 297.691 575.448 336.145 556.088C367.066 571.04 401.223 580.323 437.27 582.557C437.301 582.573 437.33 582.573 437.377 582.573C440.69 582.776 444.018 582.93 447.363 583.009C449.69 583.071 452.034 583.104 454.377 583.104C455.846 583.104 457.299 583.071 458.769 583.057C459.223 583.073 459.676 583.104 460.145 583.104C461.426 583.104 462.721 583.024 464.004 582.916C516.457 581.104 566.676 564.449 609.802 534.462C625.365 523.634 639.63 511.354 652.443 497.807C653.834 496.352 655.177 494.901 656.505 493.415C678.615 469.026 696.162 440.76 708.287 409.712L693.74 404.024C684.74 427.071 672.755 448.212 658.349 467.102C630.898 452.729 597.084 441.649 559.599 434.446C566.818 398.963 570.991 358.837 571.302 315.993H711.162C710.74 336.68 707.88 357.166 702.601 376.977L717.695 381.009C723.787 358.165 726.882 334.477 726.882 310.601C726.882 242.413 701.695 179.991 660.148 132.148C656.63 128.101 653.004 124.163 649.238 120.337ZM360.285 432.43C355.207 433.288 350.176 434.212 345.223 435.21C309.441 442.413 277.16 453.148 250.723 466.946C228.129 437.585 211.738 403.227 203.52 365.852C213.254 349.368 224.098 332.696 235.973 315.993H348.973C348.973 316.259 348.973 316.541 348.988 316.807C349.004 319.118 349.035 321.43 349.082 323.729C349.066 323.824 349.082 323.915 349.082 324.01C349.113 326.041 349.16 328.057 349.223 330.057C349.285 332.291 349.348 334.526 349.441 336.76C349.441 337.182 349.473 337.604 349.488 338.027C349.613 341.057 349.754 344.088 349.926 347.088C350.035 349.307 350.16 351.51 350.316 353.698C352.037 381.665 355.427 408.134 360.285 432.43ZM525.959 126.29C531.162 139.587 535.709 154.087 539.615 169.54C512.552 173.759 483.801 175.977 454.379 175.977C428.943 175.977 404.021 174.321 380.27 171.151C381.426 166.495 382.629 161.932 383.91 157.448C384.363 155.854 384.816 154.276 385.285 152.713C418.051 124.198 451.426 99.1195 484.332 78.3227C487.74 76.1508 491.145 74.0414 494.535 71.9789C506.021 84.368 516.771 102.759 525.959 126.29ZM554.599 271.57C554.724 273.757 554.832 275.96 554.943 278.163C555.054 280.366 555.146 282.57 555.224 284.788C555.224 284.974 555.241 285.148 555.257 285.32C555.427 290.302 555.552 295.32 555.632 300.366H364.648C365.257 259.929 369.429 221.148 376.773 186.429C401.665 189.82 427.774 191.601 454.382 191.601C479.57 191.601 504.304 190.007 527.991 186.946C533.102 186.29 538.163 185.571 543.163 184.774C548.943 211.618 552.816 240.929 554.599 271.57ZM544.145 431.71C539.145 430.913 534.084 430.18 528.957 429.524C505.004 426.399 479.941 424.759 454.379 424.759C427.38 424.759 400.959 426.587 375.785 430.055C368.77 395.165 364.91 356.352 364.598 315.993H555.676C555.676 316.226 555.676 316.462 555.66 316.696C555.645 319.024 555.613 321.351 555.566 323.665C555.52 326.212 555.457 328.759 555.395 331.29C555.332 333.509 555.254 335.727 555.16 337.93C553.834 371.009 550.082 402.743 544.145 431.71ZM473.537 66.6633C447.535 83.2586 421.301 102.413 395.316 123.773C411.238 84.1633 431.613 59.6164 452.38 54.6789C454.459 54.1789 456.52 53.882 458.598 53.7883C460.16 53.8039 461.723 53.8508 463.27 53.8977C469.629 54.5227 475.988 56.9914 482.223 61.193C479.334 62.9758 476.426 64.8055 473.537 66.6633ZM350.521 264.595C350.34 267.234 350.17 269.879 350.02 272.538C349.848 275.648 349.676 278.757 349.551 281.898C349.52 282.226 349.504 282.554 349.504 282.898C349.457 284.195 349.395 285.491 349.363 286.804C349.285 288.446 349.238 290.101 349.207 291.774C349.176 292.573 349.16 293.384 349.145 294.196C349.082 296.245 349.051 298.305 349.02 300.37H247.41C272.988 266.196 302.582 232.104 335.223 199.477C338.238 196.462 341.27 193.462 344.301 190.509C347.051 187.821 349.801 185.18 352.566 182.54C355.441 183.07 358.332 183.587 361.238 184.07C356.074 208.81 352.424 235.89 350.521 264.595ZM394.318 494.916C389.959 483.774 386.052 471.79 382.615 459.102C381.396 454.602 380.24 450.01 379.13 445.352C403.193 442.087 428.507 440.384 454.38 440.384C484.288 440.384 513.412 442.648 540.755 446.977C536.63 464.198 531.677 480.288 525.959 494.916C508.693 539.118 485.943 565.229 463.099 567.323C461.709 567.368 460.302 567.399 458.912 567.43C456.74 567.352 454.568 567.04 452.396 566.524C431.177 561.493 410.363 536.023 394.318 494.916ZM513.863 60.6961C560.176 71.7273 601.645 95.3055 634.488 127.649C638.066 131.18 641.551 134.805 644.926 138.54C619.551 150.901 588.879 160.493 555.098 166.868C553.943 162.196 552.723 157.634 551.441 153.165C540.537 114.837 525.677 83.9773 508.177 63.9305C510.068 62.8352 511.973 61.757 513.863 60.6961ZM400.613 59.4133C406.88 58.0695 413.238 56.9602 419.66 56.0852C400.363 74.0539 383.801 104.648 371.566 143.96C363.551 151.007 355.566 158.257 347.645 165.695C316.223 159.335 287.691 150.163 263.832 138.538C267.207 134.804 270.676 131.18 274.27 127.648C308.457 93.9774 352.005 69.8039 400.613 59.4133ZM253.427 150.805C276.49 162.477 303.865 171.899 334.005 178.727C330.709 181.93 327.443 185.165 324.177 188.43C288.052 224.555 255.552 262.462 228.005 300.368H197.74C199.959 243.977 220.427 192.212 253.427 150.805ZM216.912 315.993C210.802 324.837 205.005 333.649 199.49 342.446C198.412 333.759 197.771 324.93 197.584 315.993H216.912ZM168.709 558.993C153.771 544.07 148.849 518.82 154.443 485.977C159.396 456.976 172.427 422.54 192.365 385.541C203.912 425.852 224.537 462.368 251.865 492.713L256.49 497.727C274.771 517.055 295.849 533.712 319.052 547.055C248.926 580.384 194.552 584.851 168.709 558.993ZM270.988 490.243C267.488 486.695 264.113 483.054 260.848 479.305C289.238 464.993 324.487 454.226 363.566 447.696C376.051 501.257 395.754 542.868 419.66 565.118C413.238 564.241 406.895 563.132 400.629 561.788C350.443 551.055 305.629 525.634 270.988 490.243ZM502.849 562.96C523.381 542.587 540.662 507.805 552.724 463.446C553.943 458.962 555.115 454.366 556.224 449.679C591.084 456.335 622.521 466.445 648.27 479.491C645.021 483.241 641.646 486.898 638.193 490.445C601.927 527.665 554.91 553.134 502.849 562.96ZM711.019 300.368H571.255C570.63 257.462 566.16 217.382 558.613 182.087C595.129 175.134 628.224 164.524 655.332 150.805C688.334 192.212 708.801 243.977 711.019 300.368Z" fill="#4016A1"/>
</svg>
