<svg viewBox="0 0 50 50" fill="none" xmlns="http://www.w3.org/2000/svg">
<path d="M25.0003 47.3962C12.6462 47.3962 2.60449 37.3545 2.60449 25.0003C2.60449 12.6462 12.6462 2.60449 25.0003 2.60449C37.3545 2.60449 47.3962 12.6462 47.3962 25.0003C47.3962 37.3545 37.3545 47.3962 25.0003 47.3962ZM25.0003 5.72949C14.3753 5.72949 5.72949 14.3753 5.72949 25.0003C5.72949 35.6253 14.3753 44.2712 25.0003 44.2712C35.6253 44.2712 44.2712 35.6253 44.2712 25.0003C44.2712 14.3753 35.6253 5.72949 25.0003 5.72949Z" fill="currentColor"/>
<path d="M30.208 26.5625H17.708C16.8538 26.5625 16.1455 25.8542 16.1455 25C16.1455 24.1458 16.8538 23.4375 17.708 23.4375H30.208C31.0622 23.4375 31.7705 24.1458 31.7705 25C31.7705 25.8542 31.0622 26.5625 30.208 26.5625Z" fill="currentColor"/>
<path d="M26.0421 32.8122C25.6463 32.8122 25.2504 32.6663 24.9379 32.3538C24.6473 32.0598 24.4844 31.6631 24.4844 31.2497C24.4844 30.8363 24.6473 30.4395 24.9379 30.1455L30.0838 24.9997L24.9379 19.8538C24.6473 19.5598 24.4844 19.1631 24.4844 18.7497C24.4844 18.3363 24.6473 17.9395 24.9379 17.6455C25.5421 17.0413 26.5421 17.0413 27.1463 17.6455L33.3963 23.8955C34.0004 24.4997 34.0004 25.4997 33.3963 26.1038L27.1463 32.3538C26.8338 32.6663 26.4379 32.8122 26.0421 32.8122Z" fill="currentColor"/>
</svg>
