<svg width="88" height="88" viewBox="0 0 88 88" fill="none" xmlns="http://www.w3.org/2000/svg">
<g clip-path="url(#clip0_1_1059)">
<path d="M84.375 40.875C86.25 40.875 87.5 39.625 87.5 37.75C87.5 35.875 86.25 34.625 84.375 34.625H75V28.375H84.375C86.25 28.375 87.5 27.125 87.5 25.25C87.5 23.375 86.25 22.125 84.375 22.125H75C75 16.8125 70.9375 12.75 65.625 12.75V3.375C65.625 1.5 64.375 0.25 62.5 0.25C60.625 0.25 59.375 1.5 59.375 3.375V12.75H53.125V3.375C53.125 1.5 51.875 0.25 50 0.25C48.125 0.25 46.875 1.5 46.875 3.375V12.75H40.625V3.375C40.625 1.5 39.375 0.25 37.5 0.25C35.625 0.25 34.375 1.5 34.375 3.375V12.75H28.125V3.375C28.125 1.5 26.875 0.25 25 0.25C23.125 0.25 21.875 1.5 21.875 3.375V12.75C16.5625 12.75 12.5 16.8125 12.5 22.125H3.125C1.25 22.125 0 23.375 0 25.25C0 27.125 1.25 28.375 3.125 28.375H12.5V34.625H3.125C1.25 34.625 0 35.875 0 37.75C0 39.625 1.25 40.875 3.125 40.875H12.5V47.125H3.125C1.25 47.125 0 48.375 0 50.25C0 52.125 1.25 53.375 3.125 53.375H12.5V59.625H3.125C1.25 59.625 0 60.875 0 62.75C0 64.625 1.25 65.875 3.125 65.875H12.5C12.5 71.1875 16.5625 75.25 21.875 75.25V84.625C21.875 86.5 23.125 87.75 25 87.75C26.875 87.75 28.125 86.5 28.125 84.625V75.25H34.375V84.625C34.375 86.5 35.625 87.75 37.5 87.75C39.375 87.75 40.625 86.5 40.625 84.625V75.25H46.875V84.625C46.875 86.5 48.125 87.75 50 87.75C51.875 87.75 53.125 86.5 53.125 84.625V75.25H59.375V84.625C59.375 86.5 60.625 87.75 62.5 87.75C64.375 87.75 65.625 86.5 65.625 84.625V75.25C70.9375 75.25 75 71.1875 75 65.875H84.375C86.25 65.875 87.5 64.625 87.5 62.75C87.5 60.875 86.25 59.625 84.375 59.625H75V53.375H84.375C86.25 53.375 87.5 52.125 87.5 50.25C87.5 48.375 86.25 47.125 84.375 47.125H75V40.875H84.375ZM62.5 53.375C62.5 58.6875 58.4375 62.75 53.125 62.75H34.375C29.0625 62.75 25 58.6875 25 53.375V34.625C25 29.3125 29.0625 25.25 34.375 25.25H53.125C58.4375 25.25 62.5 29.3125 62.5 34.625V53.375Z" fill="#8D47F2"/>
</g>
<defs>
<clipPath id="clip0_1_1059">
<rect width="88" height="88" fill="white"/>
</clipPath>
</defs>
</svg>
