<svg width="100" height="100" viewBox="0 0 100 100" fill="none" xmlns="http://www.w3.org/2000/svg">
<path d="M46.9761 56.3424H41.5329L38.8105 51.6267C38.4348 50.9768 37.7464 50.6209 37.0457 50.6394C36.7266 50.6473 36.405 50.7329 36.1091 50.9036C35.1644 51.4492 34.8404 52.6576 35.3863 53.6026L38.1097 58.32L35.3884 63.034C34.8425 63.979 35.1665 65.1874 36.1112 65.733C36.4226 65.9127 36.7622 65.998 37.0976 65.998C37.7804 65.998 38.4446 65.6437 38.8105 65.0099L41.5329 60.2942H46.9761C48.0676 60.2942 48.9519 59.4096 48.9519 58.3184C48.9519 57.227 48.0676 56.3424 46.9761 56.3424Z" fill="#8D47F2"/>
<path d="M46.9761 23.0723H40.3901C39.684 23.0723 39.0323 23.449 38.6793 24.0602L35.3863 29.7637C34.8404 30.7087 35.1644 31.9171 36.1091 32.4627C36.4205 32.6423 36.7601 32.7277 37.0955 32.7277C37.7783 32.7277 38.4424 32.3734 38.8084 31.7395L41.5308 27.0239H46.9761C48.0676 27.0239 48.9519 26.1395 48.9519 25.0481C48.9519 23.9569 48.0676 23.0723 46.9761 23.0723Z" fill="#8D47F2"/>
<path d="M53.0119 27.0239H58.4573L61.1802 31.7395C61.5462 32.3734 62.2103 32.7277 62.8931 32.7277C63.228 32.7277 63.5683 32.6423 63.8789 32.4627C64.8242 31.9171 65.1477 30.7087 64.6023 29.7637L61.3093 24.0602C60.9563 23.449 60.304 23.0723 59.598 23.0723H53.0119C51.9205 23.0723 51.0361 23.9566 51.0361 25.0481C51.0361 26.1395 51.9205 27.0239 53.0119 27.0239Z" fill="#8D47F2"/>
<path d="M18.1657 72.9771H12.7204L9.99769 68.2614C9.4521 67.3162 8.24343 66.9932 7.29873 67.5383C6.35376 68.0839 6.02999 69.2923 6.57558 70.2373L9.86861 75.9408C10.2216 76.552 10.8736 76.9287 11.5797 76.9287H18.1657C19.2572 76.9287 20.1415 76.0443 20.1415 74.9529C20.1415 73.8614 19.2572 72.9771 18.1657 72.9771Z" fill="#8D47F2"/>
<path d="M6.9799 63.034L4.25722 58.3184L6.9799 53.6028C7.52549 52.6578 7.20172 51.4494 6.25675 50.9038C5.31126 50.3582 4.10311 50.6815 3.55779 51.627L0.264759 57.3305C-0.0882531 57.9417 -0.0882531 58.6951 0.264759 59.3063L3.55779 65.0098C3.92397 65.6437 4.58784 65.998 5.27069 65.998C5.60605 65.998 5.94589 65.9126 6.25675 65.733C7.20172 65.1874 7.52549 63.979 6.9799 63.034Z" fill="#8D47F2"/>
<path d="M18.1657 39.7068H11.5797C10.8736 39.7068 10.2216 40.0835 9.86861 40.6947L6.57558 46.3982C6.02999 47.3432 6.35376 48.5516 7.29873 49.0972C7.61012 49.2768 7.94969 49.3622 8.28479 49.3622C8.96763 49.3622 9.63177 49.0079 9.99769 48.374L12.7204 43.6584H18.1657C19.2572 43.6584 20.1415 42.774 20.1415 41.6826C20.1415 40.5912 19.2572 39.7068 18.1657 39.7068Z" fill="#8D47F2"/>
<path d="M24.2014 43.6576H29.6446L32.3673 48.3733C32.7332 49.0071 33.3974 49.3614 34.0802 49.3614C34.0802 49.3614 34.0807 49.3614 34.0813 49.3614C34.0813 49.3614 34.0818 49.3614 34.0823 49.3614C34.4172 49.3614 34.7575 49.2761 35.0681 49.0964C36.0134 48.5508 36.3369 47.3424 35.7915 46.3974L33.0675 41.68L35.7894 36.966C36.3348 36.021 36.0113 34.8126 35.066 34.267C34.1203 33.7217 32.9126 34.0446 32.3673 34.9901L29.6446 39.7057H24.2014C23.11 39.7057 22.2256 40.5901 22.2256 41.6816C22.2256 42.773 23.1102 43.6576 24.2014 43.6576Z" fill="#8D47F2"/>
<path d="M35.0691 67.5365C34.1239 66.9911 32.9157 67.3144 32.3704 68.2596L29.6477 72.9752H24.2024C23.1109 72.9752 22.2266 73.8599 22.2266 74.951C22.2266 76.0425 23.1109 76.9268 24.2024 76.9268H30.7884C31.4945 76.9268 32.1467 76.5501 32.4998 75.9389L35.7928 70.2354C36.3378 69.2907 36.0143 68.0823 35.0691 67.5365Z" fill="#8D47F2"/>
<path d="M75.7974 72.9771H70.3521L67.6297 68.2614C67.0838 67.3162 65.8751 66.9932 64.9304 67.5383C63.9857 68.0839 63.6617 69.2923 64.2075 70.2373L67.5006 75.9408C67.8536 76.552 68.5056 76.9287 69.2114 76.9287H75.7974C76.8889 76.9287 77.7732 76.0443 77.7732 74.9529C77.7732 73.8614 76.8889 72.9771 75.7974 72.9771Z" fill="#8D47F2"/>
<path d="M64.6116 63.0328L61.8886 58.3172L64.6116 53.6016C65.1569 52.6566 64.8334 51.4482 63.8882 50.9026C63.6495 50.7649 63.3937 50.6827 63.136 50.6518C62.3715 50.5565 61.5894 50.9161 61.1802 51.6253L58.4573 56.3414H53.0119C51.9205 56.3414 51.0361 57.2258 51.0361 58.3172C51.0361 59.4084 51.9205 60.293 53.0119 60.293H58.4665L61.1895 65.0086C61.5554 65.6425 62.2195 65.9968 62.9024 65.9968C63.2372 65.9968 63.5776 65.9115 63.8882 65.7318C64.8334 65.1862 65.1572 63.9778 64.6116 63.0328Z" fill="#8D47F2"/>
<path d="M75.7974 39.7075H70.3423L67.6199 34.9919C67.074 34.0467 65.8654 33.7237 64.9207 34.2688C63.976 34.8144 63.6519 36.0228 64.1978 36.9677L66.9202 41.6833L64.1978 46.399C63.6519 47.3439 63.976 48.5523 64.9207 49.0979C65.2321 49.2776 65.5716 49.3629 65.907 49.3629C65.9086 49.3629 65.9102 49.3627 65.9117 49.3627C65.9133 49.3627 65.9154 49.3629 65.917 49.3629C66.5998 49.3629 67.264 49.0086 67.6299 48.3748L70.3523 43.6592H75.7977C76.8891 43.6592 77.7735 42.7748 77.7735 41.6833C77.7732 40.5919 76.8888 39.7075 75.7974 39.7075Z" fill="#8D47F2"/>
<path d="M81.8332 43.6584H87.2786L90.0015 48.374C90.3674 49.0079 91.0316 49.3622 91.7144 49.3622C92.0495 49.3622 92.3896 49.2768 92.7002 49.0972C93.6455 48.5516 93.969 47.3432 93.4236 46.3982L90.1306 40.6947C89.7776 40.0835 89.1253 39.7068 88.4193 39.7068H81.8332C80.7418 39.7068 79.8574 40.5912 79.8574 41.6826C79.8574 42.7738 80.7421 43.6584 81.8332 43.6584Z" fill="#8D47F2"/>
<path d="M99.7352 57.3304L96.4422 51.6269C95.8963 50.6819 94.6876 50.3581 93.7429 50.9037C92.7982 51.4493 92.4742 52.6577 93.02 53.6027L95.7424 58.3183L93.02 63.0339C92.4742 63.9789 92.7982 65.1873 93.7429 65.7329C94.0543 65.9125 94.3939 65.9979 94.7293 65.9979C95.4121 65.9979 96.0762 65.6436 96.4422 65.0097L99.7352 59.3062C100.088 58.695 100.088 57.9418 99.7352 57.3304Z" fill="#8D47F2"/>
<path d="M92.7002 67.5365C91.755 66.9911 90.5469 67.3144 90.0015 68.2596L87.2786 72.9752H81.8332C80.7418 72.9752 79.8574 73.8599 79.8574 74.951C79.8574 76.0425 80.7418 76.9268 81.8332 76.9268H88.4193C89.1253 76.9268 89.7776 76.5501 90.1306 75.9389L93.4236 70.2354C93.9692 69.2907 93.6455 68.0823 92.7002 67.5365Z" fill="#8D47F2"/>
</svg>
