<svg viewBox="0 0 64 64" fill="none" xmlns="http://www.w3.org/2000/svg">
<path d="M18.6667 37.334H33.3333M18.6667 26.6673H45.3333M26.6667 50.6673H16.5333C13.5464 50.6673 12.0529 50.6673 10.9121 50.086C9.90851 49.5748 9.09261 48.7588 8.58131 47.7553C8 46.6145 8 45.1209 8 42.134V21.8673C8 18.8804 8 17.3869 8.58131 16.246C9.09261 15.2425 9.90851 14.4266 10.9121 13.9153C12.0529 13.334 13.5464 13.334 16.5333 13.334H47.4667C50.4536 13.334 51.9472 13.334 53.088 13.9153C54.0915 14.4266 54.9075 15.2425 55.4187 16.246C56 17.3869 56 18.8804 56 21.8673V22.6673M37.3333 53.334L42.7333 52.254C43.204 52.1598 43.4395 52.1127 43.6589 52.0265C43.8539 51.9503 44.0392 51.851 44.2107 51.7313C44.4043 51.5964 44.5739 51.4268 44.9136 51.087L56 40.0006C57.4728 38.5278 57.4728 36.1401 56 34.6673C54.5272 33.1945 52.1395 33.1945 50.6667 34.6673L39.5803 45.7537C39.2405 46.0934 39.0709 46.263 38.936 46.4566C38.8163 46.6281 38.7171 46.8134 38.6408 47.0084C38.5547 47.2278 38.5075 47.4633 38.4133 47.934L37.3333 53.334Z" stroke="currentColor" stroke-width="4" stroke-linecap="round" stroke-linejoin="round"/>
</svg>
