<svg width="100" height="100" viewBox="0 0 100 100" fill="none" xmlns="http://www.w3.org/2000/svg">
<path d="M62.9396 16.7346L11.999 43.8895L3.96289 65.3621L5.37559 66.1141L35.3898 82.0906L95.6428 50.0174L88.2693 30.5051L62.9396 16.7346ZM86.1887 35.3258L91.093 48.3043L71.0617 58.9672L84.0611 36.4525L86.1887 35.3256V35.3258ZM68.6934 44.5869L55.6563 67.1674L47.5176 71.4998L61.6182 48.3318L68.6934 44.5869ZM14.1373 48.5893L19.6471 51.5059L9.09785 62.0551L14.1373 48.5893ZM55.3145 51.6688L41.2486 74.7787L41.2994 74.81L37.9385 76.599L39.0703 60.2674L55.3145 51.6688ZM23.0227 53.2922L26.3357 55.0461L14.5301 66.8518L11.2234 65.0916L23.0229 53.292L23.0227 53.2922ZM35.4342 59.9408L34.2283 77.3373L23.6619 71.7127L35.4342 59.9408Z" fill="#8D47F2"/>
</svg>
