<svg width="144" height="98" viewBox="0 0 144 98" fill="none" xmlns="http://www.w3.org/2000/svg">
<path d="M42.976 51.08H39.088V55.4C39.088 55.576 39.032 55.72 38.92 55.832C38.808 55.944 38.664 56 38.488 56H36.088C35.928 56 35.792 55.944 35.68 55.832C35.568 55.72 35.512 55.576 35.512 55.4V44.12C35.512 43.944 35.568 43.8 35.68 43.688C35.792 43.576 35.928 43.52 36.088 43.52H38.488C38.664 43.52 38.808 43.576 38.92 43.688C39.032 43.8 39.088 43.944 39.088 44.12V48.248H42.976V51.08ZM47.248 56.24C45.92 56.24 44.808 56.024 43.912 55.592C43.032 55.144 42.352 54.512 41.872 53.696C41.392 52.88 41.128 51.928 41.08 50.84C41.064 50.52 41.056 50.16 41.056 49.76C41.056 49.344 41.064 48.984 41.08 48.68C41.128 47.576 41.4 46.624 41.896 45.824C42.392 45.008 43.088 44.384 43.984 43.952C44.88 43.504 45.968 43.28 47.248 43.28C48.512 43.28 49.592 43.504 50.488 43.952C51.384 44.384 52.08 45.008 52.576 45.824C53.072 46.624 53.352 47.576 53.416 48.68C53.432 48.984 53.44 49.344 53.44 49.76C53.44 50.16 53.432 50.52 53.416 50.84C53.352 51.928 53.08 52.88 52.6 53.696C52.136 54.512 51.456 55.144 50.56 55.592C49.664 56.024 48.56 56.24 47.248 56.24ZM47.248 53.6C48.032 53.6 48.624 53.36 49.024 52.88C49.424 52.384 49.64 51.664 49.672 50.72C49.688 50.48 49.696 50.16 49.696 49.76C49.696 49.36 49.688 49.04 49.672 48.8C49.64 47.872 49.424 47.16 49.024 46.664C48.624 46.168 48.032 45.92 47.248 45.92C46.464 45.92 45.872 46.168 45.472 46.664C45.072 47.16 44.848 47.872 44.8 48.8C44.784 49.04 44.776 49.36 44.776 49.76C44.776 50.16 44.784 50.48 44.8 50.72C44.848 51.664 45.072 52.384 45.472 52.88C45.872 53.36 46.464 53.6 47.248 53.6ZM56.5255 56C56.3655 56 56.2295 55.944 56.1175 55.832C56.0055 55.72 55.9495 55.576 55.9495 55.4V44.12C55.9495 43.944 56.0055 43.8 56.1175 43.688C56.2295 43.576 56.3655 43.52 56.5255 43.52H58.9255C59.1015 43.52 59.2455 43.576 59.3575 43.688C59.4695 43.8 59.5255 43.944 59.5255 44.12V48.248H64.3975V44.12C64.3975 43.944 64.4535 43.8 64.5655 43.688C64.6775 43.576 64.8215 43.52 64.9975 43.52H67.3975C67.5575 43.52 67.6935 43.576 67.8055 43.688C67.9175 43.8 67.9735 43.944 67.9735 44.12V55.4C67.9735 55.576 67.9175 55.72 67.8055 55.832C67.6935 55.944 67.5575 56 67.3975 56H64.9975C64.8215 56 64.6775 55.944 64.5655 55.832C64.4535 55.72 64.3975 55.576 64.3975 55.4V51.08H59.5255V55.4C59.5255 55.576 59.4695 55.72 59.3575 55.832C59.2455 55.944 59.1015 56 58.9255 56H56.5255ZM71.6187 56C71.4747 56 71.3467 55.944 71.2347 55.832C71.1227 55.72 71.0667 55.584 71.0667 55.424V44.12C71.0667 43.944 71.1227 43.8 71.2347 43.688C71.3467 43.576 71.4827 43.52 71.6427 43.52H74.0427C74.2187 43.52 74.3627 43.576 74.4747 43.688C74.5867 43.8 74.6427 43.944 74.6427 44.12V53.24L73.6827 52.688L79.9467 43.904C80.0267 43.792 80.1147 43.704 80.2107 43.64C80.3227 43.56 80.4587 43.52 80.6187 43.52H82.7787C82.9387 43.52 83.0747 43.576 83.1867 43.688C83.2987 43.8 83.3547 43.928 83.3547 44.072V55.4C83.3547 55.576 83.2987 55.72 83.1867 55.832C83.0747 55.944 82.9307 56 82.7547 56H80.3547C80.1947 56 80.0587 55.944 79.9467 55.832C79.8347 55.72 79.7787 55.576 79.7787 55.4V46.64L80.7627 46.808L74.4507 55.616C74.3867 55.728 74.2987 55.824 74.1867 55.904C74.0747 55.968 73.9467 56 73.8027 56H71.6187ZM89.9759 56C89.7999 56 89.6559 55.944 89.5439 55.832C89.4319 55.72 89.3759 55.576 89.3759 55.4V46.352H85.6079C85.4319 46.352 85.2879 46.296 85.1759 46.184C85.0639 46.072 85.0079 45.928 85.0079 45.752V44.12C85.0079 43.944 85.0639 43.8 85.1759 43.688C85.2879 43.576 85.4319 43.52 85.6079 43.52H96.6719C96.8479 43.52 96.9919 43.576 97.1039 43.688C97.2159 43.8 97.2719 43.944 97.2719 44.12V45.752C97.2719 45.928 97.2159 46.072 97.1039 46.184C96.9919 46.296 96.8479 46.352 96.6719 46.352H92.9039V55.4C92.9039 55.576 92.8479 55.72 92.7359 55.832C92.6239 55.944 92.4879 56 92.3279 56H89.9759ZM98.5934 56C98.4494 56 98.3214 55.952 98.2094 55.856C98.1134 55.744 98.0654 55.616 98.0654 55.472C98.0654 55.424 98.0734 55.368 98.0894 55.304C98.1214 55.224 98.1614 55.152 98.2094 55.088L102.265 49.592L98.5454 44.432C98.4974 44.368 98.4574 44.304 98.4254 44.24C98.4094 44.176 98.4014 44.112 98.4014 44.048C98.4014 43.904 98.4494 43.784 98.5454 43.688C98.6574 43.576 98.7854 43.52 98.9294 43.52H101.425C101.617 43.52 101.761 43.568 101.857 43.664C101.969 43.76 102.049 43.848 102.097 43.928L104.569 47.288L107.041 43.952C107.105 43.872 107.185 43.784 107.281 43.688C107.377 43.576 107.529 43.52 107.737 43.52H110.113C110.257 43.52 110.377 43.576 110.473 43.688C110.585 43.784 110.641 43.904 110.641 44.048C110.641 44.112 110.633 44.176 110.617 44.24C110.601 44.304 110.561 44.368 110.497 44.432L106.705 49.616L110.809 55.088C110.857 55.152 110.889 55.216 110.905 55.28C110.937 55.344 110.953 55.408 110.953 55.472C110.953 55.616 110.897 55.744 110.785 55.856C110.689 55.952 110.569 56 110.425 56H107.809C107.633 56 107.497 55.96 107.401 55.88C107.305 55.784 107.225 55.696 107.161 55.616L104.497 52.064L101.785 55.616C101.737 55.68 101.665 55.76 101.569 55.856C101.473 55.952 101.329 56 101.137 56H98.5934ZM113.478 56C113.334 56 113.206 55.944 113.094 55.832C112.982 55.72 112.926 55.584 112.926 55.424V44.12C112.926 43.944 112.982 43.8 113.094 43.688C113.206 43.576 113.342 43.52 113.502 43.52H115.902C116.078 43.52 116.222 43.576 116.334 43.688C116.446 43.8 116.502 43.944 116.502 44.12V53.24L115.542 52.688L121.806 43.904C121.886 43.792 121.974 43.704 122.07 43.64C122.182 43.56 122.318 43.52 122.478 43.52H124.638C124.798 43.52 124.934 43.576 125.046 43.688C125.158 43.8 125.214 43.928 125.214 44.072V55.4C125.214 55.576 125.158 55.72 125.046 55.832C124.934 55.944 124.79 56 124.614 56H122.214C122.054 56 121.918 55.944 121.806 55.832C121.694 55.72 121.638 55.576 121.638 55.4V46.64L122.622 46.808L116.31 55.616C116.246 55.728 116.158 55.824 116.046 55.904C115.934 55.968 115.806 56 115.662 56H113.478ZM128.547 56C128.403 56 128.283 55.952 128.187 55.856C128.091 55.76 128.043 55.64 128.043 55.496V44C128.043 43.872 128.091 43.76 128.187 43.664C128.283 43.568 128.395 43.52 128.523 43.52H130.875C131.163 43.52 131.387 43.664 131.547 43.952L135.051 50.216L138.531 43.952C138.691 43.664 138.915 43.52 139.203 43.52H141.579C141.707 43.52 141.819 43.568 141.915 43.664C142.011 43.76 142.059 43.872 142.059 44V55.496C142.059 55.64 142.011 55.76 141.915 55.856C141.819 55.952 141.699 56 141.555 56H139.035C138.875 56 138.747 55.952 138.651 55.856C138.571 55.76 138.531 55.64 138.531 55.496V47.216L139.611 47.432L136.203 53.552C136.123 53.696 136.027 53.824 135.915 53.936C135.819 54.048 135.675 54.104 135.483 54.104H134.595C134.419 54.104 134.275 54.056 134.163 53.96C134.051 53.848 133.947 53.712 133.851 53.552L130.539 47.648L131.547 47.432V55.496C131.547 55.64 131.499 55.76 131.403 55.856C131.307 55.952 131.187 56 131.043 56H128.547Z" fill="white"/>
<path d="M62.2253 62.2254C62.6158 62.616 62.6161 63.2495 62.2223 63.6368C54.1374 71.5882 45.2151 78.1096 36.9806 82.0759C28.5043 86.1588 21.3158 87.265 16.7143 85.1947C12.1128 83.1244 10.4017 78.0141 11.8903 70.7873C13.3789 63.5606 17.969 54.6941 24.8311 45.79C31.6932 36.886 40.3746 28.5318 49.3065 22.2372C58.2384 15.9425 66.8317 12.1227 73.5334 11.4678C80.2351 10.813 84.6032 13.3664 85.8482 18.6667C87.0723 23.8773 85.1986 31.4048 80.5638 39.9275C80.411 40.2085 80.1477 40.4146 79.8387 40.4971C78.837 40.7647 77.9928 39.6911 78.4536 38.7624C81.8391 31.939 83.1448 25.9459 82.1424 21.679C81.0219 16.9088 77.0906 14.6107 71.0591 15.2001C65.0276 15.7894 57.2936 19.2273 49.2549 24.8925C41.2161 30.5577 33.4029 38.0764 27.227 46.0901C21.0511 54.1037 16.9201 62.0836 15.5803 68.5877C14.2406 75.0917 15.7805 79.691 19.9219 81.5543C24.0633 83.4175 30.5329 82.4219 38.1616 78.7474C45.5484 75.1893 53.5502 69.3467 60.8078 62.2222C61.202 61.8353 61.8348 61.8349 62.2253 62.2254Z" fill="url(#paint0_linear_207_10)"/>
<path d="M62.2254 35.3562C62.6159 34.9657 62.6162 34.3322 62.2224 33.9449C54.26 26.114 45.4816 19.6664 37.3449 15.6826C28.9656 11.5801 21.803 10.353 17.1159 12.217C12.4287 14.081 10.5168 18.9169 11.7163 25.8748C12.9157 32.8327 17.1496 41.4674 23.6741 50.2617C30.1986 59.0559 38.5961 67.4469 47.3909 73.9601C56.1858 80.4734 64.8153 84.6921 71.7629 85.875C78.7106 87.0578 83.5319 85.1292 85.3796 80.4279C87.1935 75.8127 86.0277 68.8154 82.0892 60.6286C81.9478 60.3347 81.6927 60.1095 81.3843 60.0034C80.3436 59.6454 79.373 60.7354 79.8015 61.7491C82.4962 68.1231 83.1802 73.5505 81.7207 77.2642C80.0578 81.4954 75.7186 83.2312 69.4657 82.1666C63.2128 81.102 55.4462 77.3051 47.5309 71.4432C39.6155 65.5813 32.0577 58.0294 26.1857 50.1146C20.3137 42.1998 16.5032 34.4285 15.4237 28.1664C14.3442 21.9043 16.0649 17.552 20.2833 15.8744C24.5018 14.1968 30.9481 15.3012 38.4895 18.9935C45.7882 22.567 53.6606 28.3433 60.8079 35.3595C61.202 35.7464 61.8349 35.7467 62.2254 35.3562Z" fill="url(#paint1_linear_207_10)"/>
<circle cx="83" cy="30" r="5" fill="url(#paint2_linear_207_10)"/>
<circle cx="14" cy="68" r="5" fill="url(#paint3_linear_207_10)"/>
<defs>
<linearGradient id="paint0_linear_207_10" x1="69.579" y1="6.67394" x2="94.8822" y2="69.3474" gradientUnits="userSpaceOnUse">
<stop stop-color="#05B7E2"/>
<stop offset="1" stop-color="#FE4FE0" stop-opacity="0.9"/>
</linearGradient>
<linearGradient id="paint1_linear_207_10" x1="6.67391" y1="28.0025" x2="69.3474" y2="2.69933" gradientUnits="userSpaceOnUse">
<stop stop-color="#05B7E2"/>
<stop offset="1" stop-color="#FE4FE0" stop-opacity="0.9"/>
</linearGradient>
<linearGradient id="paint2_linear_207_10" x1="79.2298" y1="25.4612" x2="88.043" y2="34.6331" gradientUnits="userSpaceOnUse">
<stop stop-color="#05B7E2"/>
<stop offset="1" stop-color="#FE4FE0"/>
</linearGradient>
<linearGradient id="paint3_linear_207_10" x1="10.2298" y1="63.4612" x2="19.043" y2="72.6331" gradientUnits="userSpaceOnUse">
<stop stop-color="#05B7E2"/>
<stop offset="1" stop-color="#FE4FE0"/>
</linearGradient>
</defs>
</svg>
